<svg xmlns="http://www.w3.org/2000/svg" width="240.5" height="50.199" viewBox="0 0 240.5 50.199">
  <g id="logo-emr-horizontal" transform="translate(-8423.5 346.501)">
    <g id="Grupo_216" data-name="Grupo 216" transform="translate(8424 -346.001)">
      <g id="Grupo_216-2" data-name="Grupo 216" transform="translate(56.155 0.01)">
        <path id="Caminho_284" data-name="Caminho 284" d="M269.839,372.7h7.769v2.606H273.23v1.378h3.715v2.458h-3.7v1.8h4.577v2.606h-7.968Z" transform="translate(-269.839 -369.191)" fill="#35bd78"/>
        <path id="Caminho_285" data-name="Caminho 285" d="M294.8,378.409V372.7h3.389v5.52a3.288,3.288,0,0,0,.461,2.083,2.431,2.431,0,0,0,3.36.089,3.189,3.189,0,0,0,.559-2.172V372.7h3.259v5.707a5.413,5.413,0,0,1-1,3.581,6.785,6.785,0,0,1-9.086-.046A5.592,5.592,0,0,1,294.8,378.409Z" transform="translate(-284.426 -369.191)" fill="#35bd78"/>
        <path id="Caminho_286" data-name="Caminho 286" d="M351.418,383.55V372.7h3.259l3.079,3.955,3.062-3.955h3.225v10.848h-3.391v-3.535c0-.854.017-1.8.034-2.546l-.034-.014c-.494.689-1.037,1.394-1.562,2.083l-1.416,1.829-1.44-1.829c-.542-.689-1.07-1.394-1.565-2.083l-.034.014c.017.749.034,1.694.034,2.546v3.535Z" transform="translate(-317.511 -369.191)" fill="#35bd78"/>
        <path id="Caminho_287" data-name="Caminho 287" d="M388.69,367.754h7.769v2.606h-4.37v1.378h3.7V374.2h-3.7v1.8h4.56V378.6H388.68Zm4.3-1.063h-2.1l1.44-2.457h2.64Z" transform="translate(-339.293 -364.233)" fill="#35bd78"/>
        <path id="Caminho_288" data-name="Caminho 288" d="M413.871,372.716h3.43a9.926,9.926,0,0,1,5.6,1.243,5.342,5.342,0,0,1,.346,8.1,9.033,9.033,0,0,1-5.878,1.5h-3.489Zm3.523,8.239c2.16,0,3.029-.389,3.54-.943a2.7,2.7,0,0,0,.61-1.857,2.5,2.5,0,0,0-1.02-2.218,5.712,5.712,0,0,0-3.144-.614h-.115v5.633Z" transform="translate(-354.006 -369.207)" fill="#35bd78"/>
        <path id="Caminho_289" data-name="Caminho 289" d="M446.266,372.7h3.391v10.848h-3.391Z" transform="translate(-372.937 -369.191)" fill="#35bd78"/>
        <path id="Caminho_290" data-name="Caminho 290" d="M467.008,372.323a8.861,8.861,0,0,1,3.293.614v3.026a6.824,6.824,0,0,0-3.226-.9,2.985,2.985,0,0,0-3.36,2.832c0,1.574,1.25,2.863,3.422,2.863a6.826,6.826,0,0,0,3.326-.943v3.041a9.1,9.1,0,0,1-3.456.646c-4,0-6.684-2.429-6.684-5.573a6.017,6.017,0,0,1,6.684-5.606Z" transform="translate(-381.151 -368.987)" fill="#35bd78"/>
        <path id="Caminho_291" data-name="Caminho 291" d="M496.079,372.309a5.638,5.638,0,1,1-6.37,5.589,5.945,5.945,0,0,1,6.37-5.589Zm0,8.4a2.82,2.82,0,1,0-2.978-2.815,2.88,2.88,0,0,0,2.978,2.83Z" transform="translate(-398.323 -368.973)" fill="#35bd78"/>
      </g>
      <g id="Grupo_217" data-name="Grupo 217" transform="translate(56.138 17.649)">
        <path id="Caminho_292" data-name="Caminho 292" d="M269.849,407.536h9.026a17.6,17.6,0,0,1,7.253,1.169,6.408,6.408,0,0,1,4.181,6.144,6.516,6.516,0,0,1-4.752,6.338l6.859,9.881h-8.323l-5.76-8.938H277.19v8.938h-7.358Zm9.18,10.01a6.24,6.24,0,0,0,2.894-.48,1.92,1.92,0,0,0,1.037-1.853,1.973,1.973,0,0,0-1.25-1.951,8.159,8.159,0,0,0-3.144-.389h-1.358v4.68Z" transform="translate(-269.832 -407.191)" fill="#35bd78"/>
        <path id="Caminho_293" data-name="Caminho 293" d="M323.635,407.523h16.86v5.657h-9.5v2.99h8.038v5.33h-8.038v3.9h9.931v5.654h-17.28Z" transform="translate(-301.258 -407.177)" fill="#35bd78"/>
        <path id="Caminho_294" data-name="Caminho 294" d="M368.648,423a21.258,21.258,0,0,0,8.5,2.34c1.5,0,2.573-.48,2.573-1.68,0-1.68-2.071-1.68-5.359-2.729-3.929-1.236-6.643-2.99-6.643-6.792,0-4.584,3.9-7.476,9.681-7.476a22,22,0,0,1,8.431,1.723v6.175a20.951,20.951,0,0,0-8.359-2.34c-1.356,0-2.287.389-2.287,1.44,0,1.526,2,1.526,5.143,2.534,4.037,1.3,6.859,3.12,6.859,7.085,0,4.745-4.109,7.637-10.109,7.637a22.953,22.953,0,0,1-8.431-1.625Z" transform="translate(-327.02 -406.668)" fill="#35bd78"/>
        <path id="Caminho_295" data-name="Caminho 295" d="M417.907,407.523h7.358v23.52h-7.358Z" transform="translate(-356.348 -407.177)" fill="#35bd78"/>
        <path id="Caminho_296" data-name="Caminho 296" d="M441.969,407.558h7.44a21.553,21.553,0,0,1,12.146,2.7,11.59,11.59,0,0,1,.751,17.582c-2.573,2.112-6.538,3.25-12.753,3.25h-7.574Zm7.644,17.875c4.68,0,6.574-.845,7.68-2.047a5.861,5.861,0,0,0,1.322-4.03,5.424,5.424,0,0,0-2.215-4.8,12.418,12.418,0,0,0-6.823-1.332h-.24v12.221Z" transform="translate(-370.409 -407.212)" fill="#35bd78"/>
        <path id="Caminho_297" data-name="Caminho 297" d="M503.673,407.523h16.865v5.657h-9.5v2.99h8.038v5.33h-8.038v3.9h9.931v5.654h-17.28Z" transform="translate(-406.467 -407.177)" fill="#35bd78"/>
        <path id="Caminho_298" data-name="Caminho 298" d="M560.772,422.533c-1.44-1.754-2.678-3.348-3.965-5.04l-.072.034c.036,1.982.072,4,.072,5.981v7.541h-7.073v-23.52h6.9l6.859,8.515c1.44,1.754,2.678,3.36,3.965,5.04l.072-.034c-.036-1.982-.072-4-.072-5.981v-7.541h7.073v23.52h-6.9Z" transform="translate(-433.383 -407.171)" fill="#35bd78"/>
        <path id="Caminho_299" data-name="Caminho 299" d="M619.568,413.18h-8.215v-5.657h23.791v5.657h-8.218v17.875h-7.358Z" transform="translate(-469.392 -407.177)" fill="#35bd78"/>
        <path id="Caminho_300" data-name="Caminho 300" d="M670.562,407.523h16.862v5.657h-9.5v2.99h8.038v5.33h-8.038v3.9h9.931v5.654h-17.28Z" transform="translate(-503.992 -407.177)" fill="#35bd78"/>
      </g>
      <g id="Grupo_218" data-name="Grupo 218" transform="translate(0)">
        <path id="Exclusão_1" data-name="Exclusão 1" d="M23.7,49.2a4.01,4.01,0,0,1-1.159-.17L2.861,43.082A3.994,3.994,0,0,1,0,39.237V4.013A4.015,4.015,0,0,1,4.01,0H43.387A4.018,4.018,0,0,1,47.4,4.013V39.237a3.994,3.994,0,0,1-2.854,3.84l-19.68,5.947A4.01,4.01,0,0,1,23.7,49.2ZM8.6,24.909v2.64a3.576,3.576,0,0,0,3.574,3.574h5v9.36a3.578,3.578,0,0,0,3.574,3.574h2.64V31.123H24V39.7h2.64a3.578,3.578,0,0,0,3.574-3.574v-5h9.36a3.576,3.576,0,0,0,3.571-3.574v-2.64H30.223v-.622H38.8v-2.64a3.576,3.576,0,0,0-3.574-3.571h-5V8.717A3.576,3.576,0,0,0,26.64,5.15H24V18.074h-.61V9.5H20.75a3.576,3.576,0,0,0-3.576,3.571v5H7.824A3.576,3.576,0,0,0,4.25,21.645v2.64H17.174v.622Zm15.413,0H23.39v-.622H24v.619Z" transform="translate(0)" fill="#35bd78" stroke="rgba(0,0,0,0)" stroke-width="1"/>
      </g>
    </g>
  </g>
</svg>
